<svg width="8" height="16" viewBox="0 0 8 16" fill="none" xmlns="http://www.w3.org/2000/svg">
<path d="M6.99984 3.99984V11.6665C6.99984 13.1398 5.8065 14.3332 4.33317 14.3332C2.85984 14.3332 1.6665 13.1398 1.6665 11.6665V3.33317C1.6665 2.41317 2.41317 1.6665 3.33317 1.6665C4.25317 1.6665 4.99984 2.41317 4.99984 3.33317V10.3332C4.99984 10.6998 4.69984 10.9998 4.33317 10.9998C3.9665 10.9998 3.6665 10.6998 3.6665 10.3332V3.99984H2.6665V10.3332C2.6665 11.2532 3.41317 11.9998 4.33317 11.9998C5.25317 11.9998 5.99984 11.2532 5.99984 10.3332V3.33317C5.99984 1.85984 4.8065 0.666504 3.33317 0.666504C1.85984 0.666504 0.666504 1.85984 0.666504 3.33317V11.6665C0.666504 13.6932 2.3065 15.3332 4.33317 15.3332C6.35984 15.3332 7.99984 13.6932 7.99984 11.6665V3.99984H6.99984Z" fill="#515151"/>
</svg>

