<svg xmlns="http://www.w3.org/2000/svg" width="22" height="15" fill="none"><rect id="backgroundrect" width="100%" height="100%" x="0" y="0" fill="none" stroke="none"/>

<g class="currentLayer" style=""><title>Layer 1</title><path fill-rule="evenodd" clip-rule="evenodd" d="M11,0 C6,0 1.73,3.11 0,7.5 C1.73,11.89 6,15 11,15 C16,15 20.27,11.89 22,7.5 C20.27,3.11 16,0 11,0 zM11,12.5 C8.24,12.5 6,10.26 6,7.5 C6,4.74 8.24,2.5 11,2.5 C13.76,2.5 16,4.74 16,7.5 C16,10.26 13.76,12.5 11,12.5 zM11,4.5 C9.34,4.5 8,5.84 8,7.5 C8,9.16 9.34,10.5 11,10.5 C12.66,10.5 14,9.16 14,7.5 C14,5.84 12.66,4.5 11,4.5 z" fill="#858585" id="svg_1" class=""/><path fill="#4a90d6" fill-opacity="1" stroke="#b6b6b6" stroke-opacity="1" stroke-width="2" stroke-dasharray="none" stroke-linejoin="round" stroke-linecap="butt" stroke-dashoffset="" fill-rule="nonzero" opacity="1" marker-start="" marker-mid="" marker-end="" d="M0.39393565781202255,0.6818101645420995L20.8484802995669,14.318173259045352" id="svg_2"/></g></svg>