<svg width="14" height="14" viewBox="0 0 14 14" fill="none" xmlns="http://www.w3.org/2000/svg">
<path d="M6.99967 0.333336C3.31967 0.333336 0.333008 3.32 0.333008 7C0.333008 10.68 3.31967 13.6667 6.99967 13.6667C10.6797 13.6667 13.6663 10.68 13.6663 7C13.6663 3.32 10.6797 0.333336 6.99967 0.333336ZM7.66634 11.6667H6.33301V10.3333H7.66634V11.6667ZM9.04634 6.5L8.44634 7.11334C7.96634 7.6 7.66634 8 7.66634 9H6.33301V8.66667C6.33301 7.93334 6.63301 7.26667 7.11301 6.78L7.93967 5.94C8.18634 5.7 8.33301 5.36667 8.33301 5C8.33301 4.26667 7.73301 3.66667 6.99967 3.66667C6.26634 3.66667 5.66634 4.26667 5.66634 5H4.33301C4.33301 3.52667 5.52634 2.33334 6.99967 2.33334C8.47301 2.33334 9.66634 3.52667 9.66634 5C9.66634 5.58667 9.42634 6.12 9.04634 6.5Z" fill="#696969"/>
</svg>
